<?xml version="1.0" encoding="iso-8859-1"?>
<!-- Generator: Adobe Illustrator 19.0.0, SVG Export Plug-In . SVG Version: 6.00 Build 0)  -->
<svg version="1.1" id="Layer_1" xmlns="http://www.w3.org/2000/svg" xmlns:xlink="http://www.w3.org/1999/xlink" x="0px" y="0px"
	 viewBox="0 0 512 512" style="enable-background:new 0 0 512 512;" xml:space="preserve">
<g>
	<g>
		<path d="M415.969,360.253c-5.891,0-10.656,4.781-10.656,10.672s4.766,10.672,10.656,10.672s10.672-4.781,10.672-10.672
			S421.859,360.253,415.969,360.253z"/>
	</g>
</g>
<g>
	<g>
		<path d="M106.656,360.253c-5.891,0-10.664,4.781-10.664,10.672s4.773,10.672,10.664,10.672s10.664-4.781,10.664-10.672
			S112.547,360.253,106.656,360.253z"/>
	</g>
</g>
<g>
	<g>
		<path d="M196.062,142.854l-46.578,81.516l-24.531-40.883L64.008,285.065h50.789h71.109h91.422L196.062,142.854z M126.993,263.737
			h-25.305l23.266-38.789l12.398,20.656L126.993,263.737z M151.555,263.737l44.508-77.891l44.508,77.891H151.555z"/>
	</g>
</g>
<g>
	<g>
		<path d="M426.641,167.745l-85.328,0.086v-64.086c0-11.781-9.547-21.328-21.328-21.328H21.336C9.555,82.417,0,91.964,0,103.745
			v255.977c0,11.781,9.547,21.344,21.328,21.344h28.57c4.797,27,28.375,47.516,56.758,47.516s51.961-20.516,56.758-47.516h135.227
			h59.547c4.797,27.562,28.844,48.516,57.781,48.516s52.984-20.953,57.781-48.516h38.031L512,274.409L426.641,167.745z
			 M106.656,407.253c-20.031,0-36.328-16.297-36.328-36.328c0-20.047,16.297-36.328,36.328-36.328s36.328,16.281,36.328,36.328
			C142.984,390.956,126.688,407.253,106.656,407.253z M319.968,359.722H163.227c-5.211-26.484-28.555-46.469-56.57-46.469
			c-28.015,0-51.359,19.984-56.57,46.469H21.328l0.008-255.977h298.648L319.968,359.722z M415.969,408.253
			c-20.594,0-37.328-16.75-37.328-37.328s16.734-37.328,37.328-37.328s37.344,16.75,37.344,37.328S436.562,408.253,415.969,408.253z
			 M490.484,359.722h-16.922c-5.219-27.031-29.031-47.469-57.594-47.469s-52.375,20.438-57.594,47.469h-17.062V189.159l75.094-0.07
			l74.25,92.789L490.484,359.722z"/>
	</g>
</g>
<g>
</g>
<g>
</g>
<g>
</g>
<g>
</g>
<g>
</g>
<g>
</g>
<g>
</g>
<g>
</g>
<g>
</g>
<g>
</g>
<g>
</g>
<g>
</g>
<g>
</g>
<g>
</g>
<g>
</g>
</svg>
